<svg width="32" height="32" viewBox="0 0 32 32" fill="none" xmlns="http://www.w3.org/2000/svg">
<path d="M13.0012 13.3413H18.6586V18.9986" stroke="#7540EF" stroke-width="2" stroke-linecap="round" stroke-linejoin="round"/>
<path d="M18.6668 13.3333L8.63342 23.3667C7.92942 24.0707 6.78675 24.0707 6.08275 23.3667V23.3667C4.30942 21.5933 3.31075 19.188 3.30542 16.68V16.68C3.30542 15.04 3.62275 13.4 4.25342 11.8573C4.87475 10.3387 5.79875 8.916 7.03209 7.684C9.24409 5.472 12.3001 4.104 15.6748 4.104C19.0494 4.104 22.1054 5.472 24.3174 7.684C26.5294 9.896 27.8974 12.9507 27.8974 16.3267C27.8974 19.7013 26.5294 22.7573 24.3174 24.9693C22.1054 27.1813 19.0508 28.5493 15.6748 28.5493C14.3588 28.5493 13.0454 28.3227 11.7854 27.8987" stroke="#7540EF" stroke-width="2" stroke-linecap="round" stroke-linejoin="round"/>
</svg>
