<svg width="65" height="64" viewBox="0 0 65 64" fill="none" xmlns="http://www.w3.org/2000/svg">
<rect x="0.333252" width="64" height="64" rx="32" fill="#7540EF"/>
<path fill-rule="evenodd" clip-rule="evenodd" d="M34.0454 35.9999H30.676C29.9347 35.9999 29.3334 35.3986 29.3334 34.6559V32.0613H34.0454C35.124 32.0613 36 32.9359 36 34.0159V34.0453C36 35.1253 35.1254 35.9999 34.0454 35.9999V35.9999Z" stroke="white" stroke-width="1.7" stroke-linecap="round" stroke-linejoin="round"/>
<path fill-rule="evenodd" clip-rule="evenodd" d="M33.572 32.0613H29.3334V29.364C29.3334 28.6107 29.944 28 30.6974 28H33.572C34.668 28 35.556 28.888 35.556 29.984V30.076C35.5574 31.1733 34.668 32.0613 33.572 32.0613V32.0613Z" stroke="white" stroke-width="1.7" stroke-linecap="round" stroke-linejoin="round"/>
<path d="M32 27.9999H28" stroke="white" stroke-width="1.7" stroke-linecap="round" stroke-linejoin="round"/>
<path d="M32 35.9999H28" stroke="white" stroke-width="1.7" stroke-linecap="round" stroke-linejoin="round"/>
<path d="M37.2533 44.68L36.6933 43.3467" stroke="white" stroke-width="1.7" stroke-linecap="round" stroke-linejoin="round"/>
<path d="M26.7467 19.3201L27.3067 20.6534" stroke="white" stroke-width="1.7" stroke-linecap="round" stroke-linejoin="round"/>
<path d="M44.68 37.2533L43.3467 36.6933" stroke="white" stroke-width="1.7" stroke-linecap="round" stroke-linejoin="round"/>
<path d="M19.3199 26.7468L20.6533 27.3068" stroke="white" stroke-width="1.7" stroke-linecap="round" stroke-linejoin="round"/>
<path d="M44.68 26.7468L43.3467 27.3068" stroke="white" stroke-width="1.7" stroke-linecap="round" stroke-linejoin="round"/>
<path d="M19.3199 37.2533L20.6533 36.6933" stroke="white" stroke-width="1.7" stroke-linecap="round" stroke-linejoin="round"/>
<path d="M37.2533 19.3201L36.6933 20.6534" stroke="white" stroke-width="1.7" stroke-linecap="round" stroke-linejoin="round"/>
<path d="M26.7467 44.68L27.3067 43.3467" stroke="white" stroke-width="1.7" stroke-linecap="round" stroke-linejoin="round"/>
<path fill-rule="evenodd" clip-rule="evenodd" d="M32 45.7227V42.1121V45.7227Z" stroke="white" stroke-width="1.7" stroke-linecap="round" stroke-linejoin="round"/>
<path d="M32 18.28V21.8934" stroke="white" stroke-width="1.7" stroke-linecap="round" stroke-linejoin="round"/>
<path fill-rule="evenodd" clip-rule="evenodd" d="M22.2974 41.7027L24.8507 39.1494L22.2974 41.7027Z" stroke="white" stroke-width="1.7" stroke-linecap="round" stroke-linejoin="round"/>
<path d="M41.7067 22.2932L39.1467 24.8532" stroke="white" stroke-width="1.7" stroke-linecap="round" stroke-linejoin="round"/>
<path fill-rule="evenodd" clip-rule="evenodd" d="M18.2773 31.9999H21.888H18.2773Z" stroke="white" stroke-width="1.7" stroke-linecap="round" stroke-linejoin="round"/>
<path d="M45.72 31.9999H42.1067" stroke="white" stroke-width="1.7" stroke-linecap="round" stroke-linejoin="round"/>
<path fill-rule="evenodd" clip-rule="evenodd" d="M22.2974 22.2974L24.8507 24.8507L22.2974 22.2974Z" stroke="white" stroke-width="1.7" stroke-linecap="round" stroke-linejoin="round"/>
<path d="M41.7067 41.7067L39.1467 39.1467" stroke="white" stroke-width="1.7" stroke-linecap="round" stroke-linejoin="round"/>
</svg>
