<svg width="64" height="64" viewBox="0 0 64 64" fill="none" xmlns="http://www.w3.org/2000/svg">
<rect width="64" height="64" rx="32" fill="#7540EF"/>
<path d="M18.6909 37.0989C18.6909 39.0209 19.7251 40.8123 21.3895 41.7733L29.3008 46.3413C30.1336 46.8219 31.0668 47.0621 31.9999 47.0621C32.9334 47.0621 33.8668 46.8218 34.6989 46.3413L42.6103 41.7733C44.2753 40.8123 45.3093 39.021 45.3093 37.0989V27.9631C45.3093 26.0411 44.2751 24.2496 42.6103 23.2887L34.6989 18.7207C33.0333 17.7598 30.9653 17.7598 29.3006 18.7207L21.3898 23.2885C19.7252 24.2494 18.6913 26.0408 18.6913 27.9629L18.6909 37.0989ZM20.7671 27.9625C20.7671 26.7794 21.4032 25.6776 22.4275 25.0865L30.3389 20.5185C30.8515 20.2226 31.4257 20.0745 31.9999 20.0745C32.5747 20.0745 33.1489 20.2226 33.6608 20.5185L41.5722 25.0865C42.5966 25.6776 43.2331 26.7794 43.2331 27.9625V28.2322C35.4605 29.4099 28.796 34.6458 25.7933 41.9177L22.4277 39.9743C21.4032 39.3832 20.7672 38.2814 20.7672 37.0983L20.7671 27.9625ZM30.3388 44.5422L27.6111 42.9672C30.2462 36.3288 36.2195 31.5026 43.2334 30.3281V37.0976C43.2334 38.2807 42.5969 39.3826 41.5724 39.9736L33.661 44.5417C32.6383 45.1349 31.365 45.1349 30.3389 44.5417L30.3388 44.5422Z" fill="white"/>
<path d="M27.5347 32.1831C29.5379 32.1831 31.168 30.553 31.168 28.5498C31.168 26.5466 29.5379 24.9165 27.5347 24.9165C25.5315 24.9165 23.9014 26.5466 23.9014 28.5498C23.9014 30.553 25.5315 32.1831 27.5347 32.1831ZM27.5347 26.9927C28.3934 26.9927 29.0918 27.691 29.0918 28.5498C29.0918 29.4086 28.3934 30.1069 27.5347 30.1069C26.6759 30.1069 25.9775 29.4086 25.9775 28.5498C25.9775 27.6913 26.6759 26.9927 27.5347 26.9927Z" fill="white"/>
</svg>
