<svg width="148" height="32" viewBox="0 0 148 32" fill="none" xmlns="http://www.w3.org/2000/svg">
    <path fill-rule="evenodd" clip-rule="evenodd" d="M145.022 8.18043V10.3526C143.746 8.72347 142.044 7.85461 139.917 7.85461C137.896 7.85461 136.194 8.61486 134.811 10.0268C133.429 11.4387 132.791 13.285 132.791 15.3485C132.791 17.5207 133.429 19.2584 134.811 20.6703C136.194 22.0821 137.896 22.8424 139.917 22.8424C142.044 22.8424 143.746 22.0821 145.022 20.453V21.3219C145.022 22.7338 144.596 23.8199 143.639 24.7973C142.788 25.6662 141.618 26.2092 140.342 26.2092C139.385 26.2092 138.64 25.992 137.896 25.449C137.258 25.0145 136.619 24.2543 136.3 23.494L133.641 24.7973C134.28 26.1006 135.13 27.0781 136.3 27.8383C137.47 28.5986 138.853 28.9244 140.342 28.9244C142.469 28.9244 144.277 28.1642 145.766 26.7523C147.255 25.3404 148 23.494 148 21.3219V8.07183L145.022 8.18043ZM143.639 18.7153C142.788 19.5842 141.725 20.0186 140.342 20.0186C139.066 20.0186 138.002 19.5842 137.045 18.7153C136.194 17.8465 135.769 16.6518 135.769 15.3485C135.769 14.0452 136.194 12.8505 137.045 11.9817C137.896 11.1128 138.959 10.6784 140.342 10.6784C141.618 10.6784 142.788 11.1128 143.639 11.9817C144.49 12.8505 144.916 13.9366 144.916 15.3485C144.916 16.7604 144.596 17.8465 143.639 18.7153Z" fill="white"/>
    <path fill-rule="evenodd" clip-rule="evenodd" d="M125.239 7.85461C126.941 7.85461 128.43 8.39765 129.494 9.59233C130.664 10.787 131.195 12.3075 131.195 14.0452V22.8424H128.217V14.4796C128.217 13.285 127.898 12.4161 127.154 11.6559C126.409 10.8956 125.558 10.5698 124.388 10.5698C123.218 10.5698 122.367 10.8956 121.623 11.6559C120.878 12.4161 120.559 13.285 120.559 14.4796V22.8424H117.581V8.18043H120.559V10.244C121.623 8.61487 123.218 7.85461 125.239 7.85461Z" fill="white"/>
    <path fill-rule="evenodd" clip-rule="evenodd" d="M115.507 6.00813C115.188 6.33395 114.763 6.55116 114.231 6.55116C113.699 6.55116 113.273 6.33395 112.954 6.00813C112.635 5.68231 112.423 5.24788 112.423 4.70484C112.423 4.16181 112.635 3.72738 112.954 3.40156C113.273 3.07573 113.699 2.85852 114.231 2.85852C114.763 2.85852 115.188 3.07573 115.507 3.40156C115.826 3.72738 116.039 4.16181 116.039 4.70484C116.039 5.24788 115.826 5.68231 115.507 6.00813ZM112.741 8.18027H115.719V22.8422H112.741V8.18027Z" fill="white"/>
    <path fill-rule="evenodd" clip-rule="evenodd" d="M104.871 7.85461C106.573 7.85461 108.062 8.39765 109.125 9.59233C110.295 10.787 110.827 12.3075 110.827 14.0452V22.8424H107.849V14.4796C107.849 13.285 107.53 12.4161 106.785 11.6559C106.041 10.8956 105.19 10.5698 104.02 10.5698C102.85 10.5698 101.999 10.8956 101.255 11.6559C100.51 12.4161 100.191 13.285 100.191 14.4796V22.8424H97.2131V8.18043H100.191V10.244C101.255 8.61487 102.85 7.85461 104.871 7.85461Z" fill="white"/>
    <path fill-rule="evenodd" clip-rule="evenodd" d="M95.0852 6.00813C94.7661 6.33395 94.3406 6.55116 93.8088 6.55116C93.277 6.55116 92.8516 6.33395 92.5325 6.00813C92.2135 5.68231 92.0007 5.24788 92.0007 4.70484C92.0007 4.16181 92.2135 3.72738 92.5325 3.40156C92.8516 3.07573 93.277 2.85852 93.8088 2.85852C94.3406 2.85852 94.7661 3.07573 95.0852 3.40156C95.4042 3.72738 95.617 4.16181 95.617 4.70484C95.617 5.24788 95.4042 5.68231 95.0852 6.00813ZM92.3199 8.18027H95.298V22.8422H92.3199V8.18027Z" fill="white"/>
    <path fill-rule="evenodd" clip-rule="evenodd" d="M84.6623 7.85461C86.3641 7.85461 87.7468 8.39765 88.8104 9.59233C89.874 10.787 90.4058 12.3075 90.4058 14.0452V22.8424H87.4277V14.4796C87.4277 13.285 87.1086 12.4161 86.4705 11.6559C85.8323 10.8956 85.0878 10.5698 84.1306 10.5698C83.1733 10.5698 82.3224 10.8956 81.7906 11.6559C81.1525 12.4161 80.8334 13.285 80.8334 14.4796V22.8424H77.8553V14.4796C77.8553 13.285 77.5363 12.4161 76.8981 11.6559C76.2599 10.8956 75.5154 10.5698 74.5582 10.5698C73.6009 10.5698 72.7501 10.8956 72.2183 11.6559C71.5801 12.4161 71.261 13.285 71.261 14.4796V22.8424H68.283V8.18043H71.261V10.1354C72.3246 8.61486 73.7073 7.85461 75.4091 7.85461C76.3663 7.85461 77.3235 8.07183 78.0681 8.61487C78.8126 9.04929 79.4507 9.80954 79.9825 10.6784C80.5143 9.80954 81.1525 9.1579 81.897 8.72347C82.7479 8.07183 83.5988 7.85461 84.6623 7.85461Z" fill="white"/>
    <path fill-rule="evenodd" clip-rule="evenodd" d="M64.4548 10.0268C62.9658 8.50626 61.1576 7.85461 59.0305 7.85461C56.9033 7.85461 55.0951 8.61486 53.6061 10.0268C52.1171 11.4386 51.3726 13.285 51.3726 15.4571C51.3726 17.6293 52.1171 19.4756 53.6061 20.8875C55.0951 22.2994 56.9033 23.0596 59.0305 23.0596C61.1576 23.0596 62.9658 22.2994 64.4548 20.8875C65.9438 19.4756 66.6883 17.6293 66.6883 15.4571C66.6883 13.285 65.9438 11.5473 64.4548 10.0268ZM62.3808 18.9325C61.5299 19.8014 60.4663 20.3444 59.0836 20.3444C57.8073 20.3444 56.7437 19.91 55.7865 18.9325C54.9356 18.0637 54.5102 16.869 54.5102 15.4571C54.5102 14.0452 54.9356 12.9591 55.7865 11.9817C56.6374 11.1128 57.701 10.5698 59.0836 10.5698C60.4663 10.5698 61.4235 11.0042 62.3808 11.9817C63.2317 12.8505 63.6571 14.0452 63.6571 15.4571C63.6039 16.869 63.1785 18.0637 62.3808 18.9325Z" fill="white"/>
    <path fill-rule="evenodd" clip-rule="evenodd" d="M46.9582 8.18043V10.3526C45.6819 8.72347 43.9801 7.85461 41.8529 7.85461C39.8321 7.85461 38.1303 8.61486 36.7476 10.0268C35.365 11.4387 34.7268 13.285 34.7268 15.3485C34.7268 17.5207 35.365 19.2584 36.7476 20.6703C38.1303 22.0821 39.8321 22.8424 41.8529 22.8424C43.9801 22.8424 45.6819 22.0821 46.9582 20.453V21.3219C46.9582 22.7338 46.5327 23.8199 45.5755 24.7973C44.7246 25.6662 43.5547 26.2092 42.2783 26.2092C41.3211 26.2092 40.5766 25.992 39.8321 25.449C39.1939 25.0145 38.5558 24.2543 38.2367 23.494L35.5777 24.6887C36.2158 25.992 37.0667 26.9695 38.2367 27.7297C39.4066 28.49 40.7893 28.8158 42.2783 28.8158C44.4055 28.8158 46.2136 28.0555 47.7027 26.6437C49.1917 25.2318 49.9362 23.3854 49.9362 21.2133V8.07183L46.9582 8.18043ZM45.6818 18.7153C44.831 19.5842 43.7674 20.0186 42.3847 20.0186C41.1084 20.0186 40.0448 19.5842 39.0876 18.7153C38.2367 17.8465 37.8112 16.6518 37.8112 15.3485C37.8112 13.9366 38.2367 12.8505 39.0876 11.9817C39.9384 11.1128 41.002 10.6784 42.3847 10.6784C43.7674 10.6784 44.831 11.1128 45.6818 11.9817C46.5327 12.8505 46.9582 13.9366 46.9582 15.3485C46.9582 16.6518 46.5327 17.8465 45.6818 18.7153Z" fill="white"/>
    <path fill-rule="evenodd" clip-rule="evenodd" d="M29.7807 16C29.7807 24.3975 23.1141 31.205 14.8904 31.205C6.66664 31.205 0 24.3975 0 16C0 7.60255 6.66664 0.795044 14.8904 0.795044C23.1141 0.795044 29.7807 7.60255 29.7807 16ZM23.0804 16.1086L25.2075 13.0676H22.1231L19.9959 16.1086L22.2295 19.1497C20.5277 23.0595 15.9543 24.9058 12.0189 23.1681C10.1045 22.2993 8.61544 20.7788 7.87092 18.8238C7.12641 16.8689 7.23276 14.8054 7.97728 12.959C9.67904 9.04919 14.2525 7.20286 18.1878 8.94058C19.4641 9.48361 20.5277 10.3525 21.2722 11.3299H24.6757C22.8676 7.52869 19.0387 5.35654 15.1034 5.35654C13.6143 5.35654 12.019 5.68236 10.5299 6.44262C7.97728 7.63729 5.95645 9.80943 5.10557 12.5246C4.14833 15.2398 4.36105 18.0636 5.53101 20.5615C8.08364 25.8833 14.4652 28.0554 19.6768 25.5575C21.0595 24.9058 22.2295 24.037 23.1867 22.8423C24.1439 21.7562 24.8885 20.4529 25.3139 19.041L23.0804 16.1086ZM14.9972 16.1088L17.2308 19.0412H20.3152L18.188 16.1088L20.3152 13.0678H17.2308L14.9972 16.1088Z" fill="white"/>
</svg>
