<svg width="148" height="32" viewBox="0 0 148 32" fill="none" xmlns="http://www.w3.org/2000/svg">
    <path fill-rule="evenodd" clip-rule="evenodd" d="M65.25 10.4043C63.7679 8.92305 61.9213 8.19458 59.7102 8.19458C57.5235 8.19458 55.6769 8.92305 54.1705 10.4043C52.6884 11.8612 51.9352 13.6824 51.9352 15.8435C51.9352 18.0047 52.6641 19.8258 54.1705 21.2828C55.6526 22.7397 57.5235 23.4682 59.7102 23.4682C61.897 23.4682 63.7436 22.7397 65.25 21.2828C66.7321 19.8258 67.4853 18.0047 67.4853 15.8435C67.4853 13.6824 66.7564 11.8612 65.25 10.4043ZM63.0389 19.2916C62.1643 20.2144 61.0709 20.6757 59.7102 20.6757C58.3982 20.6757 57.2805 20.1901 56.3815 19.2916C55.4826 18.3689 55.0452 17.2276 55.0452 15.8435C55.0452 14.4594 55.5069 13.2939 56.3815 12.3954C57.2805 11.4727 58.3739 10.9871 59.7102 10.9871C61.0466 10.9871 62.14 11.4727 63.0389 12.3711C63.9379 13.2696 64.3753 14.4351 64.3753 15.8435C64.3753 17.2276 63.9379 18.3689 63.0389 19.2916Z" fill="#090A18"/>
    <path fill-rule="evenodd" clip-rule="evenodd" d="M85.2956 8.19458C87.0207 8.19458 88.4056 8.77736 89.499 9.94291C90.5924 11.1085 91.1269 12.614 91.1269 14.4109V23.2011H88.1141V14.8722C88.1141 13.731 87.7982 12.8082 87.1422 12.0798C86.5105 11.327 85.7087 10.9628 84.7368 10.9628C83.7649 10.9628 82.9388 11.327 82.3071 12.0798C81.6753 12.8082 81.3595 13.731 81.3595 14.8722V23.2011H78.3466V14.8722C78.3466 13.731 78.0308 12.8082 77.3991 12.0798C76.7673 11.327 75.9655 10.9628 74.9936 10.9628C74.0218 10.9628 73.1957 11.327 72.5639 12.0798C71.9322 12.8082 71.6164 13.731 71.6164 14.8722V23.2011H68.6035V8.48597H71.6164V10.4528C72.6854 8.94733 74.0947 8.19458 75.8683 8.19458C76.8888 8.19458 77.7878 8.4374 78.5896 8.92305C79.3914 9.4087 80.0231 10.0886 80.5091 10.9385C81.0436 10.0886 81.6996 9.43298 82.5015 8.94733C83.3518 8.43741 84.2751 8.19458 85.2956 8.19458Z" fill="#090A18"/>
    <path fill-rule="evenodd" clip-rule="evenodd" d="M94.1854 6.85913C94.72 6.85913 95.133 6.68915 95.4975 6.32492C95.862 5.96068 96.032 5.5236 96.032 5.01367C96.032 4.47946 95.8377 4.06666 95.4975 3.70243C95.133 3.33819 94.6957 3.16821 94.1854 3.16821C93.6509 3.16821 93.2379 3.33819 92.8491 3.70243C92.4847 4.04238 92.3146 4.50374 92.3146 5.01367C92.3146 5.54789 92.4847 5.96068 92.8491 6.32492C93.2379 6.68915 93.6995 6.85913 94.1854 6.85913Z" fill="#090A18"/>
    <path d="M95.6948 8.4624H92.682V23.1532H95.6948V8.4624Z" fill="#090A18"/>
    <path fill-rule="evenodd" clip-rule="evenodd" d="M105.173 8.19458C106.946 8.19458 108.404 8.77736 109.546 9.94291C110.688 11.1085 111.271 12.614 111.271 14.4109V23.2011H108.259V14.8722C108.259 13.731 107.894 12.8082 107.141 12.0798C106.388 11.327 105.464 10.9628 104.322 10.9628C103.18 10.9628 102.257 11.327 101.48 12.0798C100.726 12.8082 100.362 13.731 100.362 14.8722V23.2011H97.3491V8.48597H100.362V10.5743C101.528 8.9959 103.132 8.19458 105.173 8.19458Z" fill="#090A18"/>
    <path fill-rule="evenodd" clip-rule="evenodd" d="M114.302 6.85913C114.837 6.85913 115.25 6.68915 115.614 6.32492C115.979 5.96068 116.149 5.5236 116.149 5.01367C116.149 4.47946 115.954 4.06666 115.614 3.70243C115.25 3.33819 114.813 3.16821 114.302 3.16821C113.768 3.16821 113.355 3.33819 112.966 3.70243C112.601 4.04238 112.431 4.50374 112.431 5.01367C112.431 5.54789 112.601 5.96068 112.966 6.32492C113.355 6.68915 113.792 6.85913 114.302 6.85913Z" fill="#090A18"/>
    <path d="M115.786 8.46143H112.773V23.1523H115.786V8.46143Z" fill="#090A18"/>
    <path fill-rule="evenodd" clip-rule="evenodd" d="M125.314 8.17114C127.088 8.17114 128.545 8.75392 129.687 9.91947C130.829 11.085 131.412 12.5905 131.412 14.3874V23.1776H128.4V14.8488C128.4 13.7075 128.035 12.7848 127.282 12.0563C126.529 11.3036 125.605 10.9393 124.464 10.9393C123.322 10.9393 122.398 11.3036 121.621 12.0563C120.868 12.7848 120.503 13.7075 120.503 14.8488V23.1776H117.49V8.46253H120.503V10.5508C121.645 8.97246 123.273 8.17114 125.314 8.17114Z" fill="#090A18"/>
    <path fill-rule="evenodd" clip-rule="evenodd" d="M144.92 8.46253V10.6237C143.657 8.99674 141.883 8.17114 139.721 8.17114C137.68 8.17114 135.955 8.89961 134.545 10.3323C133.161 11.7649 132.48 13.5375 132.48 15.6501C132.48 17.787 133.161 19.5596 134.545 20.9922C135.93 22.4006 137.656 23.1291 139.721 23.1291C141.907 23.1291 143.633 22.3278 144.92 20.7251V21.5993C144.92 22.9834 144.459 24.1247 143.535 25.0474C142.636 25.9701 141.494 26.4558 140.134 26.4558C139.211 26.4558 138.36 26.2129 137.631 25.703C136.927 25.2174 136.368 24.5617 135.979 23.7119L133.258 25.0474C133.865 26.3101 134.788 27.3299 135.979 28.0827C137.218 28.8354 138.603 29.1997 140.134 29.1997C142.345 29.1997 144.191 28.4712 145.674 27.0142C147.18 25.5573 147.909 23.7361 147.909 21.575V8.43825H144.92V8.46253ZM143.584 19.0254C142.685 19.9238 141.616 20.3609 140.255 20.3609C138.943 20.3609 137.826 19.8995 136.927 19.0254C136.028 18.1269 135.59 17.0099 135.59 15.6501C135.59 14.2903 136.052 13.1976 136.927 12.2991C137.826 11.4007 138.919 10.9636 140.255 10.9636C141.592 10.9636 142.709 11.425 143.584 12.2991C144.483 13.1976 144.92 14.2903 144.92 15.6501C144.92 17.0099 144.483 18.1512 143.584 19.0254Z" fill="#090A18"/>
    <path fill-rule="evenodd" clip-rule="evenodd" d="M47.9196 8.46253V10.6237C46.6561 8.99674 44.8825 8.17114 42.72 8.17114C40.6791 8.17114 38.954 8.89961 37.5447 10.3323C36.1598 11.7649 35.4795 13.5375 35.4795 15.6501C35.4795 17.787 36.1598 19.5596 37.5447 20.9922C38.9297 22.4006 40.6548 23.1291 42.72 23.1291C44.9068 23.1291 46.6318 22.3278 47.9196 20.7251V21.5993C47.9196 22.9834 47.458 24.1247 46.5347 25.0474C45.6357 25.9701 44.4937 26.4558 43.1331 26.4558C42.2098 26.4558 41.3594 26.2129 40.6305 25.703C39.9258 25.2174 39.367 24.5617 38.9783 23.7119L36.257 25.0474C36.8644 26.3101 37.7877 27.3299 38.9783 28.0827C40.2174 28.8354 41.6024 29.1997 43.1331 29.1997C45.3441 29.1997 47.1907 28.4712 48.6728 27.0142C50.1792 25.5573 50.9081 23.7361 50.9081 21.575V8.43825H47.9196V8.46253ZM46.5832 19.0254C45.6843 19.9238 44.6152 20.3609 43.2546 20.3609C41.9425 20.3609 40.8248 19.8995 39.9259 19.0254C39.0269 18.1269 38.5895 17.0099 38.5895 15.6501C38.5895 14.2903 39.0512 13.1976 39.9259 12.2991C40.8248 11.4007 41.9182 10.9636 43.2546 10.9636C44.5909 10.9636 45.7086 11.425 46.5832 12.2991C47.4822 13.1976 47.9196 14.2903 47.9196 15.6501C47.9196 17.0099 47.4822 18.1512 46.5832 19.0254Z" fill="#090A18"/>
    <ellipse cx="15.2055" cy="16" rx="15.2055" ry="15.2055" fill="#7540EF"/>
    <ellipse cx="15.2055" cy="16" rx="15.2055" ry="15.2055" fill="#7540EF"/>
    <path d="M15.4441 5.35608C13.8775 5.35608 12.2915 5.68499 10.7636 6.40085C8.13331 7.61975 6.14123 9.78668 5.1742 12.4953C4.22651 15.1653 4.38124 18.0288 5.61904 20.5826C8.19134 25.8839 14.6898 28.1282 20.1052 25.613C21.4783 24.9745 22.6968 24.0652 23.7025 22.943C24.6889 21.8209 25.4045 20.5246 25.8493 19.1122L23.5671 16.0166L25.7913 12.979H22.6581L20.4339 15.9779L22.7355 19.0542L22.7161 19.0929C20.9755 23.0011 16.2757 24.8004 12.2722 23.0785C10.3188 22.2272 8.81024 20.6794 8.05595 18.7253C7.32101 16.8099 7.35969 14.7397 8.19134 12.8629C9.93199 8.95473 14.6124 7.15541 18.6353 8.87734C19.8924 9.41908 20.9755 10.251 21.7878 11.3151H25.2304C23.3544 7.56171 19.4863 5.35608 15.4441 5.35608Z" fill="white"/>
    <path d="M20.7257 12.9583H17.6119L15.349 15.9765L17.6119 18.9754H20.7257L18.5402 15.9765L20.7257 12.9583Z" fill="white"/>
</svg>
