<svg width="64" height="64" viewBox="0 0 64 64" fill="none" xmlns="http://www.w3.org/2000/svg">
<rect width="64" height="64" rx="32" fill="#7540EF"/>
<path d="M31.9999 45.3333V44" stroke="white" stroke-width="1.7" stroke-linecap="round" stroke-linejoin="round"/>
<path d="M23.5866 43.08L24.4133 42.2533" stroke="white" stroke-width="1.7" stroke-linecap="round" stroke-linejoin="round"/>
<path d="M42 34.6667H43.3333" stroke="white" stroke-width="1.7" stroke-linecap="round" stroke-linejoin="round"/>
<path d="M20.6666 34.6667H22" stroke="white" stroke-width="1.7" stroke-linecap="round" stroke-linejoin="round"/>
<path d="M39.5866 42.2533L40.4133 43.08" stroke="white" stroke-width="1.7" stroke-linecap="round" stroke-linejoin="round"/>
<path d="M35.9287 30.738C38.0984 32.9077 38.0984 36.4256 35.9287 38.5954C33.7589 40.7651 30.241 40.7651 28.0713 38.5954C25.9015 36.4256 25.9015 32.9078 28.0713 30.738C30.241 28.5683 33.7589 28.5683 35.9287 30.738" stroke="white" stroke-width="1.7" stroke-linecap="round" stroke-linejoin="round"/>
<path d="M37.9066 24H26.0933" stroke="white" stroke-width="1.7" stroke-linecap="round" stroke-linejoin="round"/>
<path d="M36.9013 32.104L41.9893 26.4C42.4253 25.912 42.6666 25.28 42.6666 24.6253V21.3333C42.6666 19.8667 41.4666 18.6667 39.9999 18.6667H23.9999C22.5266 18.6667 21.3333 19.86 21.3333 21.3333V24.6253C21.3333 25.28 21.5746 25.912 22.0106 26.4L27.0986 32.104" stroke="white" stroke-width="1.7" stroke-linecap="round" stroke-linejoin="round"/>
<path d="M22.0933 19.5067L30.7733 29.2533" stroke="white" stroke-width="1.7" stroke-linecap="round" stroke-linejoin="round"/>
<path d="M41.9067 19.5067L33.2267 29.2533" stroke="white" stroke-width="1.7" stroke-linecap="round" stroke-linejoin="round"/>
</svg>
