<svg width="33" height="33" viewBox="0 0 33 33" fill="none" xmlns="http://www.w3.org/2000/svg">
<path fill-rule="evenodd" clip-rule="evenodd" d="M22.6921 23.0656L20.9421 27.1487C20.7162 27.6751 20.1968 28.0148 19.624 28.0107C19.0512 28.0066 18.5367 27.6596 18.3183 27.13L13.4496 15.3077C13.2307 14.7764 13.3528 14.1655 13.7592 13.7592C14.1655 13.3528 14.7764 13.2307 15.3077 13.4496L27.13 18.3183C27.6596 18.5367 28.0066 19.0512 28.0107 19.624C28.0148 20.1968 27.6751 20.7162 27.1487 20.9421L23.0656 22.6921C22.8977 22.7639 22.7639 22.8977 22.6921 23.0656V23.0656Z" stroke="#7540EF" stroke-width="2" stroke-linecap="round" stroke-linejoin="round"/>
<path d="M8.48748 20.4512L6.99219 21.9465" stroke="#7540EF" stroke-width="2" stroke-linecap="round" stroke-linejoin="round"/>
<path d="M14.4699 4.00165V6.11586" stroke="#7540EF" stroke-width="2" stroke-linecap="round" stroke-linejoin="round"/>
<path d="M6.99219 6.99225L8.48748 8.48754" stroke="#7540EF" stroke-width="2" stroke-linecap="round" stroke-linejoin="round"/>
<path d="M4.00171 14.47H6.11592" stroke="#7540EF" stroke-width="2" stroke-linecap="round" stroke-linejoin="round"/>
<path d="M21.9465 6.99225L20.4512 8.48754" stroke="#7540EF" stroke-width="2" stroke-linecap="round" stroke-linejoin="round"/>
</svg>
