<svg width="32" height="33" viewBox="0 0 32 33" fill="none" xmlns="http://www.w3.org/2000/svg">
<path fill-rule="evenodd" clip-rule="evenodd" d="M16.5666 3.94398L20.196 2.76932C21.0546 2.49065 21.988 2.87865 22.3986 3.68132L24.1333 7.07865C24.3093 7.42265 24.5893 7.70398 24.9346 7.87998L28.2893 9.59332C29.1173 10.016 29.516 10.9786 29.2293 11.864L28.0693 15.448C27.9506 15.816 27.9506 16.212 28.0693 16.58L29.244 20.2093C29.5226 21.068 29.1346 22.0013 28.332 22.412L24.9346 24.1467C24.5906 24.3227 24.3093 24.6027 24.1333 24.948L22.3973 28.3453C21.9866 29.1493 21.0533 29.536 20.1946 29.2573L16.5653 28.0826C16.1973 27.964 15.8013 27.964 15.4333 28.0826L11.804 29.2573C10.9453 29.536 10.012 29.148 9.60131 28.3453L7.86664 24.948C7.69064 24.604 7.41064 24.3227 7.06531 24.1467L3.66798 22.4106C2.86398 22 2.47731 21.0666 2.75598 20.208L3.93064 16.5786C4.04931 16.2106 4.04931 15.8146 3.93064 15.4466L2.75598 11.8186C2.47864 10.96 2.86531 10.0253 3.66931 9.61465L7.06531 7.87998C7.41064 7.70398 7.69064 7.42398 7.86664 7.07865L9.60264 3.68132C10.012 2.87865 10.9466 2.49198 11.8053 2.76932L15.4346 3.94398C15.8013 4.06398 16.1986 4.06398 16.5666 3.94398V3.94398Z" stroke="#7540EF" stroke-width="2" stroke-linecap="round" stroke-linejoin="round"/>
<path d="M12 20.0133L20 12.0133" stroke="#7540EF" stroke-width="2" stroke-linecap="round" stroke-linejoin="round"/>
<path d="M12.3321 12.0133C12.1481 12.0133 11.9988 12.1627 12.0001 12.3467C12.0001 12.5307 12.1494 12.68 12.3334 12.68C12.5174 12.68 12.6668 12.5307 12.6668 12.3467C12.6668 12.1627 12.5174 12.0133 12.3321 12.0133" stroke="#7540EF" stroke-width="2" stroke-linecap="round" stroke-linejoin="round"/>
<path d="M19.6653 19.3466C19.4813 19.3466 19.332 19.496 19.3333 19.68C19.3333 19.864 19.4827 20.0133 19.6667 20.0133C19.8507 20.0133 20 19.864 20 19.68C20 19.496 19.8507 19.3466 19.6653 19.3466" stroke="#7540EF" stroke-width="2" stroke-linecap="round" stroke-linejoin="round"/>
</svg>
