<svg width="64" height="64" viewBox="0 0 64 64" fill="none" xmlns="http://www.w3.org/2000/svg">
<rect width="64" height="64" rx="32" fill="#7540EF"/>
<path fill-rule="evenodd" clip-rule="evenodd" d="M32.5666 19.9307L36.196 18.756C37.0546 18.4773 37.988 18.8653 38.3986 19.668L40.1333 23.0653C40.3093 23.4093 40.5893 23.6907 40.9346 23.8667L44.2893 25.58C45.1173 26.0027 45.516 26.9653 45.2293 27.8507L44.0693 31.4347C43.9506 31.8027 43.9506 32.1987 44.0693 32.5667L45.244 36.196C45.5226 37.0547 45.1346 37.988 44.332 38.3987L40.9346 40.1333C40.5906 40.3093 40.3093 40.5893 40.1333 40.9347L38.3973 44.332C37.9866 45.136 37.0533 45.5227 36.1946 45.244L32.5653 44.0693C32.1973 43.9507 31.8013 43.9507 31.4333 44.0693L27.804 45.244C26.9453 45.5227 26.012 45.1347 25.6013 44.332L23.8666 40.9347C23.6906 40.5907 23.4106 40.3093 23.0653 40.1333L19.668 38.3973C18.864 37.9867 18.4773 37.0533 18.756 36.1947L19.9306 32.5653C20.0493 32.1973 20.0493 31.8013 19.9306 31.4333L18.756 27.8053C18.4786 26.9467 18.8653 26.012 19.6693 25.6013L23.0653 23.8667C23.4106 23.6907 23.6906 23.4107 23.8666 23.0653L25.6026 19.668C26.012 18.8653 26.9466 18.4787 27.8053 18.756L31.4346 19.9307C31.8013 20.0507 32.1986 20.0507 32.5666 19.9307V19.9307Z" stroke="white" stroke-width="1.7" stroke-linecap="round" stroke-linejoin="round"/>
<path d="M28 36L36 28" stroke="white" stroke-width="1.7" stroke-linecap="round" stroke-linejoin="round"/>
<path d="M28.332 28C28.148 28 27.9986 28.1493 28 28.3333C28 28.5173 28.1493 28.6667 28.3333 28.6667C28.5173 28.6667 28.6666 28.5173 28.6666 28.3333C28.6666 28.1493 28.5173 28 28.332 28" stroke="white" stroke-width="1.7" stroke-linecap="round" stroke-linejoin="round"/>
<path d="M35.6653 35.3333C35.4813 35.3333 35.332 35.4827 35.3333 35.6667C35.3333 35.8507 35.4827 36 35.6667 36C35.8507 36 36 35.8507 36 35.6667C36 35.4827 35.8507 35.3333 35.6653 35.3333" stroke="white" stroke-width="1.7" stroke-linecap="round" stroke-linejoin="round"/>
</svg>
