<svg width="65" height="64" viewBox="0 0 65 64" fill="none" xmlns="http://www.w3.org/2000/svg">
<rect x="0.666748" width="64" height="64" rx="32" fill="#7540EF"/>
<path d="M24.6668 24.4933C23.5394 24.3339 22.4114 24.7796 21.6975 25.6667C20.4095 27.8987 24.2748 32.544 30.3335 36.0413C31.1162 36.4933 31.8975 36.9027 32.6668 37.2707" stroke="white" stroke-width="1.7" stroke-linecap="round" stroke-linejoin="round"/>
<path d="M32.6667 26.7292C33.4361 27.0972 34.2174 27.5052 35.0001 27.9586C41.0587 31.4559 44.9254 36.1012 43.6361 38.3332C42.9219 39.2198 41.7941 39.6655 40.6667 39.5066" stroke="white" stroke-width="1.7" stroke-linecap="round" stroke-linejoin="round"/>
<path d="M22.1653 35.1748C21.4632 36.0715 21.2854 37.2717 21.6973 38.3334C22.9853 40.5654 28.9413 39.5334 34.9999 36.0414C35.7826 35.5894 36.5279 35.1174 37.2306 34.6348" stroke="white" stroke-width="1.7" stroke-linecap="round" stroke-linejoin="round"/>
<path d="M28.1027 29.3654C28.8067 28.8827 29.5507 28.4107 30.3333 27.9587C36.392 24.4614 42.348 23.4347 43.636 25.6667C44.047 26.7286 43.8693 27.9283 43.168 28.8254" stroke="white" stroke-width="1.7" stroke-linecap="round" stroke-linejoin="round"/>
<path d="M30.1654 42.6812C30.8894 43.9319 31.7454 44.6666 32.6667 44.6666C35.2441 44.6666 37.3334 38.9959 37.3334 31.9999C37.3334 31.0959 37.2974 30.2159 37.2307 29.3652" stroke="white" stroke-width="1.7" stroke-linecap="round" stroke-linejoin="round"/>
<path d="M28.1028 34.6346C28.0361 33.7839 28.0001 32.9013 28.0001 31.9999C28.0001 25.0039 30.0895 19.3333 32.6668 19.3333C33.5881 19.3333 34.4441 20.0679 35.1681 21.3186" stroke="white" stroke-width="1.7" stroke-linecap="round" stroke-linejoin="round"/>
</svg>
