<svg width="64" height="64" viewBox="0 0 64 64" fill="none" xmlns="http://www.w3.org/2000/svg">
<rect width="64" height="64" rx="32" fill="#7540EF"/>
<path fill-rule="evenodd" clip-rule="evenodd" d="M21.1998 36.8629L23.0638 37.1482C24.4398 37.3589 25.4224 38.5909 25.3211 39.9789L25.1838 41.8602C25.1438 42.4082 25.4424 42.9242 25.9371 43.1629L27.3158 43.8269C27.8104 44.0655 28.4011 43.9762 28.8051 43.6042L30.1904 42.3242C31.2118 41.3802 32.7878 41.3802 33.8104 42.3242L35.1958 43.6042C35.5998 43.9775 36.1891 44.0655 36.6851 43.8269L38.0664 43.1615C38.5598 42.9242 38.8571 42.4095 38.8171 41.8629L38.6798 39.9789C38.5784 38.5909 39.5611 37.3589 40.9371 37.1482L42.8011 36.8629C43.3438 36.7802 43.7811 36.3735 43.9038 35.8375L44.2438 34.3469C44.3664 33.8109 44.1491 33.2549 43.6958 32.9455L42.1398 31.8802C40.9918 31.0935 40.6411 29.5575 41.3344 28.3509L42.2744 26.7162C42.5478 26.2402 42.5024 25.6442 42.1598 25.2149L41.2064 24.0189C40.8638 23.5895 40.2931 23.4122 39.7678 23.5735L37.9651 24.1255C36.6331 24.5335 35.2131 23.8495 34.7011 22.5549L34.0104 20.8042C33.8078 20.2922 33.3131 19.9562 32.7624 19.9575L31.2344 19.9615C30.6838 19.9629 30.1904 20.3015 29.9904 20.8149L29.3171 22.5455C28.8104 23.8482 27.3838 24.5375 26.0478 24.1269L24.1704 23.5509C23.6438 23.3882 23.0704 23.5669 22.7278 23.9989L21.7811 25.1962C21.4384 25.6295 21.3971 26.2269 21.6758 26.7029L22.6371 28.3415C23.3451 29.5495 22.9984 31.1002 21.8438 31.8909L20.3064 32.9442C19.8531 33.2549 19.6358 33.8109 19.7584 34.3455L20.0984 35.8362C20.2198 36.3735 20.6571 36.7802 21.1998 36.8629V36.8629Z" stroke="white" stroke-width="2" stroke-linecap="round" stroke-linejoin="round"/>
<path d="M34.5548 29.4455C35.9655 30.8561 35.9655 33.1441 34.5548 34.5548C33.1441 35.9655 30.8561 35.9655 29.4455 34.5548C28.0348 33.1441 28.0348 30.8561 29.4455 29.4455C30.8561 28.0348 33.1441 28.0348 34.5548 29.4455" stroke="white" stroke-width="2" stroke-linecap="round" stroke-linejoin="round"/>
</svg>
